<svg width="68" height="76" viewBox="0 0 68 76" fill="none" xmlns="http://www.w3.org/2000/svg">
<path d="M34.019 39.1111L10.4434 71.2509L59.6447 71.7778C54.2702 57.7039 47.9373 50.1393 34.019 39.1111Z" fill="#3D405B"/>
<path d="M58.7169 4.22223H7.42676C10.8796 15.8351 14.9115 22.9126 32.8179 38.8889L58.7169 4.22223Z" fill="#81B29A"/>
<path d="M12.8809 69.7778H55.7C55.7 69.7778 55.0495 63.9175 50.9423 62.3333C46.9969 59.8889 39.1574 62.2222 36.4372 56C35.4557 53.7551 35.2187 51 35.0447 50.3333C34.8706 49.6667 34.1164 42.7778 34.1164 42.7778C34.1164 42.7778 33.9028 49.4444 33.7682 50.3333C33.6337 51.2222 33.7133 54.1052 32.7239 56C29.7068 61.7778 19.9594 60.6667 17.9867 63.4444C15.4338 65.6667 12.8809 69.7778 12.8809 69.7778Z" fill="#F2CC8F"/>
<path d="M12.9286 11.7778C1.63663 11.7778 32.4859 36 32.4859 36C32.4859 36 56.6996 11.7778 49.4821 11.7778C42.2645 11.7778 38.3065 18.4834 32.4859 18.4834C26.6653 18.4834 24.2206 11.7778 12.9286 11.7778Z" fill="#F2CC8F"/>
<path d="M9.28295 5.11111C8.23858 17.5556 30.3163 34.1587 33.4459 37.8315C36.5754 41.5044 56.8598 56.0846 56.8598 71.7778" stroke="#E07A5F" stroke-width="7"/>
<rect width="90.2878" height="6.73658" transform="matrix(-0.608047 0.793901 -0.818384 -0.574672 63.9189 4.08627)" fill="#B5B2B2"/>
<rect y="69.5556" width="66.3754" height="6.44444" rx="2" fill="#B5B2B2"/>
<rect width="68" height="6.44444" rx="2" fill="#B5B2B2"/>
</svg>
